# xmcd
#
# Track frame offsets: 
#        150
#        21883
#        46007
#        64916
#        86138
#        122636
#        141009
#        164609
#        192637
#        210747
#        226864
#        244545
#
# Disc length: 3540 seconds
#
# Revision: 1
# Processed by: cddbd v1.5.2PL0 Copyright (c) Steve Scherf et al.
# Submitted via: ExactAudioCopy v0.99pb4
#
DISCID=a50dd20c
DTITLE=DJ Kris Bones (Genaside II) - International Lounge [CD1)
DYEAR=2003
DGENRE=Trip-Hop
TTITLE0=Desert Rose - Operatic Deviant
TTITLE1=Sugarhill - Terranova
TTITLE2=Outside In - Flightcrank (Mad Professor Remix)
TTITLE3=A Redline Requiem - Genaside II
TTITLE4=Just Enough - Terranova (Stereo MC's Uncut Remix)
TTITLE5=You Don't Know Me - Faruk Green
TTITLE6=Atmospheric Funk - Waxdoctor
TTITLE7=Precipice - Terranova (Aquasky Remix)
TTITLE8=Strange Voices - DTE (feat.  Folasade)
TTITLE9=Star - Faruk Green
TTITLE10=Clone - Terranova
TTITLE11=Never - Terranova
EXTD=
EXTT0=
EXTT1=
EXTT2=
EXTT3=
EXTT4=
EXTT5=
EXTT6=
EXTT7=
EXTT8=
EXTT9=
EXTT10=
EXTT11=
PLAYORDER=
